<?xml version="1.0" encoding="UTF-8" standalone="no"?>
<!DOCTYPE svg PUBLIC "-//W3C//DTD SVG 1.1//EN" "http://www.w3.org/Graphics/SVG/1.1/DTD/svg11.dtd">
<svg width="100%" height="100%" viewBox="0 0 591 591" version="1.1" xmlns="http://www.w3.org/2000/svg" xmlns:xlink="http://www.w3.org/1999/xlink" xml:space="preserve" xmlns:serif="http://www.serif.com/" style="fill-rule:evenodd;clip-rule:evenodd;stroke-linejoin:round;stroke-miterlimit:2;">
    <g transform="matrix(1,0,0,1,-526.88189,-1373.661417)">
        <path d="M653,1676C653,1676 649.589,1696.245 654,1705C658.411,1713.755 671,1717 671,1717C671,1717 668.324,1734.357 674,1742C679.676,1749.643 692,1755 692,1755C692,1755 699.225,1770.896 705,1774C710.775,1777.104 723,1777 723,1777C723,1777 726.031,1787.692 732,1791C737.969,1794.308 747,1793 747,1793C747,1793 757.827,1800.921 768,1804C778.173,1807.079 802,1810 802,1810C802,1810 825.797,1810.423 832,1810C838.203,1809.577 842,1808 842,1808C842,1808 853.176,1810.422 860,1808C866.824,1805.578 871,1802 871,1802C871,1802 880.386,1803.258 887,1800C893.614,1796.742 898,1792 898,1792C898,1792 903.189,1792.081 908,1790C912.811,1787.919 936.093,1769.2 939,1766C941.907,1762.8 952.403,1751.125 953,1749C953.597,1746.875 954,1745 954,1745L967,1733L968,1732C968,1732 936.521,1507.682 934,1501C931.479,1494.318 924.517,1487.711 919,1486C913.483,1484.289 908,1482 908,1482C908,1482 901.469,1473.698 895,1472C888.531,1470.302 878,1470 878,1470C878,1470 870.092,1463.017 862,1461C853.908,1458.983 831.871,1457.166 821,1458C810.129,1458.834 805.434,1458.031 786,1462C766.566,1465.969 757.331,1467.644 751,1471C744.669,1474.356 741,1480 741,1480C741,1480 726.585,1480.954 722,1484C717.415,1487.046 711,1497 711,1497C711,1497 701.227,1499.283 695,1505C688.773,1510.717 689.691,1510.946 688,1514C686.309,1517.054 684,1526 684,1526C684,1526 676.684,1527.766 674,1530C671.316,1532.234 667.497,1537.706 666,1543C664.503,1548.294 665,1556 665,1556C665,1556 659.501,1558.268 657,1564C654.499,1569.732 651,1584 651,1584L647,1596L644,1612L643,1640C643,1640 642.594,1650.899 644,1657C645.406,1663.101 653,1676 653,1676Z" style="fill:rgb(250,243,230);"/>
    </g>
    <g transform="matrix(1,0,0,1,-526.88189,-1373.661417)">
        <path d="M697.066,1769.396C671.456,1778.902 648.907,1781.311 631.764,1777.793C630.449,1777.523 629.166,1777.218 627.915,1776.88C621.678,1785.987 614.202,1789.117 605.875,1790.624C599.795,1791.724 593.23,1791.901 586.344,1793.055C581.678,1793.836 576.707,1796.746 572.937,1800.771C569.223,1804.735 566.65,1809.803 566.852,1815.092C567.024,1819.591 569.247,1824.194 574.328,1828.394C584.439,1836.755 597.691,1837.847 611.568,1835.741C633.193,1832.459 656.327,1821.395 672.338,1816.025C690.724,1809.858 713.643,1814.112 734.38,1832.439C752.876,1848.786 778.298,1866.629 811.363,1856.016C891.458,1830.309 915.264,1832.678 948.915,1849.128C949.948,1849.633 950.377,1850.882 949.872,1851.915C949.367,1852.948 948.118,1853.377 947.085,1852.872C914.189,1836.79 890.936,1834.852 812.637,1859.984C777.886,1871.137 751.06,1852.741 731.62,1835.561C712.228,1818.422 690.857,1814.208 673.662,1819.975C657.473,1825.405 634.061,1836.542 612.193,1839.861C597.075,1842.155 582.688,1840.714 571.672,1831.606C565.459,1826.469 562.898,1820.753 562.688,1815.251C562.445,1808.872 565.417,1802.703 569.896,1797.923C574.317,1793.203 580.185,1789.862 585.656,1788.945C592.523,1787.795 599.07,1787.62 605.133,1786.524C612.105,1785.262 618.389,1782.697 623.712,1775.571C615.575,1772.686 609.024,1768.195 604.365,1762.291C600.929,1757.937 600.036,1753.936 600.529,1750.494C601.265,1745.356 605.224,1741.335 609.316,1739.054C612.354,1737.361 615.447,1736.672 617.296,1736.938C626.392,1738.245 641.2,1752.134 630.847,1771.964C630.633,1772.374 630.417,1772.775 630.199,1773.168C630.987,1773.363 631.788,1773.544 632.601,1773.711C648.923,1777.06 670.305,1774.731 694.607,1765.861C692.333,1762.173 691.012,1758.714 690.4,1756.88C690.155,1756.747 689.935,1756.565 689.758,1756.342C681.052,1752.757 675.613,1749.203 672.419,1743.775C669.182,1738.274 668.234,1730.732 668.864,1718.874C654.74,1715.415 650.201,1704.55 649.276,1694.424C648.575,1686.748 649.998,1679.545 650.672,1676.702C648.135,1673.956 646.129,1670.399 644.606,1666.244C641.891,1658.839 640.691,1649.491 640.529,1639.674C640.127,1615.348 646.101,1588.164 650.176,1580.992C650.358,1579.317 650.586,1577.686 650.864,1576.104C652.62,1566.118 656.381,1558.106 662.374,1553.608C662.388,1553.342 662.403,1553.076 662.419,1552.812C663.366,1537.681 669.041,1526.307 682.248,1524.013C684.565,1506.309 698.405,1498.773 710.1,1495.098C712.672,1489.532 716.033,1485.777 719.555,1483.231C725.791,1478.724 732.636,1477.975 736.972,1477.917C737.891,1477.905 738.891,1477.881 739.965,1477.85C739.996,1477.811 740.027,1477.773 740.059,1477.734C745.28,1471.341 753.144,1466.443 764.558,1463.964C773.468,1462.029 788,1457.796 807.914,1456.223C808.37,1455.944 808.931,1455.84 809.491,1455.975C809.491,1455.975 809.626,1456.008 809.884,1456.077C811.426,1455.971 812.999,1455.881 814.603,1455.81C835.546,1454.881 851,1455.963 862.098,1459.064C868.76,1460.926 873.905,1463.52 877.78,1466.827C882.143,1466.479 898.698,1466.168 909.12,1480.002C913.088,1480.431 927.297,1482.997 934.551,1497.979C936.171,1498.27 944.845,1500.231 951.687,1509.783C954.048,1513.079 956.205,1517.306 957.746,1522.729C960.864,1525.309 978.155,1540.913 990.976,1579.341C992.798,1584.801 994.828,1592.595 996.522,1601.119C996.676,1601.517 996.823,1601.911 996.962,1602.299C997.116,1602.73 997.119,1603.178 996.999,1603.586C998.999,1614.236 1000.41,1625.76 1000.214,1635.165C1000.046,1643.259 998.589,1649.839 995.615,1653.317C997.631,1657.302 1000.306,1666.658 995.055,1676.626C993.846,1678.922 992.208,1681.263 990.023,1683.577C988.76,1692.761 988.418,1700.725 985.799,1706.359C984.218,1709.76 982.002,1712.861 978.945,1715.746C974.371,1727.808 966.844,1738.122 957.084,1746.027C957.081,1746.196 957.058,1746.367 957.013,1746.537C956.409,1748.8 953.959,1752.582 950.23,1757.015C942.052,1766.739 927.726,1780.057 915.888,1787.841C911.383,1790.804 907.214,1792.969 903.848,1793.915C901.892,1794.464 900.157,1794.603 898.705,1794.357C893.454,1800.174 887.828,1803.228 882.104,1804.29C878.644,1804.932 875.135,1804.838 871.631,1804.155C861.669,1811.854 851.786,1812.943 842.629,1810.334C835.431,1812.761 828.93,1813.393 823.098,1812.771C822.769,1812.975 822.381,1813.09 821.966,1813.083C768.888,1812.213 750.687,1799.23 746.447,1795.388C744.3,1795.893 742.437,1796.138 740.923,1796.082C727.374,1795.579 722.494,1783.428 721.289,1779.598C709.604,1781.11 701.905,1775.551 697.066,1769.396ZM694.53,1756.146C696.444,1761.752 704.092,1779.366 723.54,1774.968C748.745,1769.268 821.887,1718.422 839.655,1703.409C878.937,1670.216 906.98,1639.516 921,1591.417C934.94,1543.592 939.127,1521.831 932.046,1502.724C927.372,1490.109 917.415,1486.02 911.869,1484.702C914.77,1491.42 915.351,1500.817 914.046,1511.425C913.249,1517.901 911.768,1524.84 909.754,1531.875C909.933,1532.153 910.048,1532.478 910.076,1532.83C910.076,1532.83 914.668,1588.129 868.6,1643.335C821.899,1699.298 734.069,1741.864 694.53,1756.146ZM936.518,1502.872C943.021,1522.164 938.956,1544.702 925,1592.583C910.737,1641.517 882.308,1672.823 842.345,1706.591C824.534,1721.641 751.784,1772.034 725.39,1778.807C726.5,1782.239 730.475,1791.525 741.077,1791.918C742.379,1791.966 743.958,1791.753 745.767,1791.321C746.208,1790.996 746.74,1790.87 747.251,1790.932C750.99,1789.875 755.546,1788.039 760.571,1785.74C780.76,1776.506 808.045,1759.557 820.867,1751.251C863.626,1723.555 902.362,1684.858 919.2,1655.951C950.08,1602.936 955.53,1559.34 955.917,1543.948C956.31,1528.36 952.775,1518.458 948.299,1512.209C944.246,1506.55 939.471,1503.989 936.518,1502.872ZM672.998,1719.597C672.467,1730.037 673.124,1736.758 676.01,1741.662C678.874,1746.529 683.92,1749.488 691.828,1752.687C730.291,1739.038 818.674,1696.66 865.4,1640.665C898.082,1601.501 904.65,1562.32 905.81,1543.953C902.457,1553.105 898.346,1562.066 893.81,1570.031C862.647,1624.751 815.397,1659.28 787.095,1676.772C762.105,1692.217 733.506,1706.21 709.578,1713.812C695.146,1718.396 682.367,1720.628 672.998,1719.597ZM654.267,1679.794C653.639,1683.056 652.911,1688.412 653.426,1694.045C654.22,1702.749 658.05,1712.198 670.454,1714.967C679.493,1716.984 692.895,1714.74 708.316,1709.841C731.959,1702.329 760.212,1688.489 784.905,1673.228C812.82,1655.975 859.451,1621.942 890.19,1567.969C899.933,1550.861 907.681,1529.033 909.91,1510.917C911.34,1499.297 910.581,1489.243 906.3,1483.205C898.947,1472.83 887.743,1471.02 881.638,1470.875C882.741,1472.309 883.679,1473.842 884.465,1475.472C887.376,1481.503 888.199,1488.932 887.419,1497.811C886.499,1508.273 883.355,1520.825 879.028,1535.527C879.162,1536.099 879.054,1536.724 878.679,1537.234C878.607,1537.331 878.528,1537.421 878.444,1537.502C877.66,1540.137 876.841,1542.84 875.992,1545.61C874.161,1551.586 870.803,1558.53 866.08,1566.104C866.053,1566.654 865.809,1567.192 865.359,1567.579C865.241,1567.681 865.114,1567.767 864.983,1567.837C852.996,1586.483 833.006,1608.701 807.315,1629.616C803.437,1632.773 799.485,1635.805 795.481,1638.708L795.388,1638.775C788.345,1643.876 781.142,1648.581 773.891,1652.876C773.782,1653.111 773.627,1653.33 773.427,1653.518C772.984,1653.934 772.406,1654.119 771.843,1654.077C754.017,1664.436 735.97,1672.321 719.386,1677.555C718.928,1677.965 718.324,1678.139 717.742,1678.067C705.841,1681.719 694.731,1683.986 685.047,1684.803C671.633,1685.934 660.874,1684.223 654.267,1679.794ZM649.701,1595.189C646.878,1606.746 644.434,1623.808 644.695,1639.606C644.849,1648.915 645.943,1657.787 648.518,1664.81C649.895,1668.566 651.687,1671.78 654.022,1674.184C654.339,1674.362 654.597,1674.617 654.78,1674.918C654.961,1675.082 655.144,1675.242 655.331,1675.397C661.114,1680.201 671.523,1681.762 684.696,1680.651C684.793,1680.643 684.89,1680.635 684.987,1680.626C677.664,1674.151 661.757,1657.227 654.295,1627.202C651.667,1616.628 650.025,1605.538 649.701,1595.189ZM662.287,1559.318C658.562,1563.46 656.24,1569.591 654.968,1576.826C652.483,1590.966 654.13,1609.265 658.338,1626.197C667.021,1661.132 687.545,1677.579 690.753,1679.973C697.861,1678.991 705.602,1677.3 713.758,1674.926C706.108,1667.662 685.218,1646.307 676.048,1621.728C669.926,1605.319 662.658,1579.934 662.287,1559.318ZM681.923,1528.326C671.43,1530.716 667.361,1540.561 666.578,1553.072C665.264,1574.066 673.335,1602.536 679.952,1620.272C689.72,1646.451 713.22,1668.84 718.362,1673.527C726.07,1671.087 734.101,1668.061 742.278,1664.47C734.634,1657.467 710.483,1633.886 699.07,1605.784C692.337,1589.205 682.532,1571.401 681.917,1530.031C681.908,1529.454 681.911,1528.886 681.923,1528.326ZM708.153,1500.168C697.397,1504.183 685.818,1512.132 686.083,1529.969C686.686,1570.521 696.33,1587.965 702.93,1604.216C714.876,1633.631 741.175,1657.942 746.426,1662.606C753.719,1659.252 761.105,1655.455 768.46,1651.231C760.742,1642.758 733.124,1611.591 724.076,1589.799C713.479,1564.277 702.411,1539.443 705.932,1510.746C706.422,1506.752 707.184,1503.246 708.153,1500.168ZM737.037,1482.083C737.034,1482.083 737.031,1482.083 737.028,1482.083C733.29,1482.133 727.372,1482.723 721.996,1486.608C716.521,1490.564 711.706,1497.902 710.068,1511.254C706.638,1539.202 717.604,1563.345 727.924,1588.201C737.056,1610.195 765.522,1641.885 772.136,1649.082C778.577,1645.25 784.981,1641.09 791.262,1636.611C785.24,1628.621 759.894,1594.469 750.102,1572.86C746.506,1564.923 741.295,1553.111 737.267,1540.157C737.061,1539.848 736.934,1539.48 736.918,1539.082C736.917,1539.06 736.917,1539.038 736.917,1539.016C734.427,1530.822 732.438,1522.208 731.647,1513.854C730.543,1502.188 731.788,1491.028 737.037,1482.083ZM809.482,1460.282C789.182,1461.751 774.42,1466.086 765.442,1468.036C756.839,1469.905 750.436,1473.233 745.814,1477.641C759.49,1477.104 780.167,1476.148 800.184,1477.925C820.011,1479.684 838.695,1484.912 853.456,1490.245C840.243,1469.729 814.765,1461.75 809.482,1460.282ZM875.291,1470.192C871.805,1467.141 867.098,1464.788 860.977,1463.077C851.221,1460.351 838,1459.278 820.508,1459.765C832.231,1464.616 850.339,1474.619 859.601,1492.553C870.625,1496.853 878.794,1500.902 882.617,1502.895C882.895,1501.019 883.114,1499.202 883.268,1497.446C883.972,1489.438 883.338,1482.723 880.713,1477.283C879.545,1474.863 877.979,1472.71 875.973,1470.812C875.704,1470.66 875.47,1470.448 875.291,1470.192ZM959.297,1529.992C959.917,1534.121 960.215,1538.784 960.083,1544.052C959.995,1547.519 959.66,1552.393 958.849,1558.467C964.895,1560.877 971.207,1565.733 976.965,1571.7C981.357,1576.252 985.431,1581.444 988.835,1586.631C988.221,1584.43 987.611,1582.42 987.024,1580.659C977.568,1552.32 965.679,1536.819 959.297,1529.992ZM958.231,1562.724C957.066,1570.154 955.235,1579.045 952.415,1589.101C976.322,1605.279 986.366,1630.804 989.577,1653.779C990.086,1653.246 990.596,1652.696 991.108,1652.128C991.239,1651.843 991.437,1651.583 991.699,1651.373C991.768,1651.317 991.84,1651.267 991.914,1651.222C992.084,1651.029 992.254,1650.833 992.425,1650.636C994.977,1647.689 995.905,1641.994 996.049,1635.079C996.251,1625.332 994.678,1613.252 992.528,1602.343C989.166,1593.811 982.128,1583.051 973.967,1574.593C968.948,1569.392 963.513,1565.051 958.231,1562.724ZM951.193,1593.32C948.821,1601.256 945.845,1609.851 942.118,1618.971C958.576,1631.352 965.755,1652.394 967.806,1668.446C975.837,1664.805 981.132,1661.561 985.837,1657.397C983.282,1635.058 974.25,1609.527 951.193,1593.32ZM940.457,1622.95C936.662,1631.863 932.154,1641.244 926.804,1650.975C929.627,1652.621 932.348,1655.729 934.603,1659.516C938.037,1665.283 940.461,1672.546 940.984,1677.673C945.449,1676.885 949.953,1675.725 954.246,1674.058C957.797,1672.679 960.965,1671.405 963.819,1670.193C962.134,1655.2 955.771,1635.009 940.457,1622.95ZM924.789,1654.586C924.138,1655.735 923.475,1656.89 922.8,1658.049C919.084,1664.429 914.317,1671.283 908.687,1678.391C914.009,1678.996 925.02,1679.836 936.872,1678.301C936.5,1673.719 934.198,1666.981 931.023,1661.648C929.171,1658.537 927.066,1655.861 924.789,1654.586ZM905.61,1682.197C900.275,1688.666 894.268,1695.31 887.723,1701.969C896.166,1704.185 922.521,1708.692 964.31,1694.034C979.885,1688.571 987.77,1681.516 991.369,1674.684C995.261,1667.296 994.035,1660.318 992.602,1656.65C984.323,1665.359 976.056,1670.06 955.754,1677.942C935.495,1685.808 910.73,1682.915 905.61,1682.197ZM884.371,1705.335C878.143,1711.506 871.473,1717.667 864.47,1723.692C872.101,1728.062 898.339,1740.605 934.464,1730.987C949.268,1727.045 959.978,1723.176 967.652,1718.828C974.98,1714.676 979.454,1710.123 982.021,1704.602C984.03,1700.281 984.544,1694.498 985.301,1687.835C980.572,1691.501 974.204,1694.979 965.69,1697.966C918.456,1714.533 890.226,1707.229 884.371,1705.335ZM861.113,1726.547C854.466,1732.14 847.541,1737.595 840.427,1742.81C846.507,1746.633 865.701,1756.829 900.126,1758.921C932.679,1760.899 959.516,1745.751 972.086,1720.978C963.995,1726.068 952.303,1730.549 935.536,1735.013C895.72,1745.614 867.382,1730.384 861.113,1726.547ZM836.14,1745.907C831.859,1748.954 827.517,1751.909 823.133,1754.749C822.722,1755.014 822.297,1755.289 821.858,1755.572C825.868,1761.598 840.414,1782.368 857.485,1793.534C865.182,1798.569 873.384,1801.67 881.344,1800.194C885.882,1799.352 890.311,1797.001 894.512,1792.733C854.512,1774.671 839.884,1752.683 836.14,1745.907ZM818.351,1757.815C813.923,1760.63 808.547,1763.98 802.695,1767.508C805.79,1772.749 816.885,1790.371 831.65,1800.423C835.125,1802.788 838.811,1804.725 842.647,1805.947C843.284,1805.836 843.925,1806.032 844.391,1806.449C851.403,1808.255 858.874,1807.58 866.44,1802.724C862.631,1801.378 858.862,1799.413 855.204,1797.021C837.547,1785.471 822.477,1763.999 818.351,1757.815ZM799.125,1769.648C795.084,1772.053 790.872,1774.506 786.629,1776.9C789.916,1784.367 805.274,1814.572 836.112,1807.829C833.777,1806.702 831.504,1805.363 829.306,1803.867C813.976,1793.432 802.418,1775.193 799.125,1769.648ZM782.992,1778.933C775.839,1782.893 768.717,1786.596 762.304,1789.529C758.336,1791.344 754.624,1792.857 751.321,1793.97C757,1798.029 772.74,1806.253 808.935,1808.426C793.966,1800.558 785.643,1784.736 782.992,1778.933ZM949.326,1751.513C935.636,1759.922 918.668,1764.222 899.874,1763.079C871.069,1761.329 852.559,1754.028 843.16,1749.155C849.886,1758.539 865.774,1775.713 898.831,1790.089C899.821,1790.52 901.145,1790.346 902.721,1789.903C905.768,1789.047 909.52,1787.042 913.599,1784.36C925.128,1776.778 939.077,1763.804 947.041,1754.333C947.872,1753.346 948.638,1752.402 949.326,1751.513ZM875.596,1532.43C878.304,1523.133 880.501,1514.738 881.892,1507.223C875.34,1503.712 839.968,1485.639 799.816,1482.075C778.015,1480.14 755.427,1481.48 742.081,1481.949C738.61,1486.82 736.693,1492.563 735.892,1498.776C749.103,1497.951 822.489,1495.258 875.596,1532.43ZM863.535,1562.365C867.518,1555.764 870.383,1549.692 872.008,1544.39C872.818,1541.748 873.6,1539.169 874.351,1536.653C821.172,1498.61 746.363,1502.224 735.518,1502.973C735.344,1506.381 735.458,1509.897 735.796,1513.462C735.871,1514.259 735.958,1515.059 736.055,1515.86C769.705,1514.387 834.559,1531.419 863.535,1562.365ZM741.919,1541.087C744.98,1550.53 748.62,1559.263 751.661,1566.148C752.66,1560.659 754.998,1552.551 760.473,1544.367C753.434,1542.453 747.065,1541.285 741.919,1541.087ZM755.016,1573.525C758.664,1581.058 763.939,1589.855 769.492,1598.424C770.807,1588.66 774.948,1567.928 787.295,1553.897C779.568,1550.587 771.859,1547.743 764.695,1545.58C755.052,1559.227 755.083,1572.99 755.083,1572.99C755.084,1573.175 755.061,1573.354 755.016,1573.525ZM773.093,1603.894C780.286,1614.664 787.463,1624.532 791.783,1630.354C791.836,1623.774 792.537,1612.411 796.063,1600.528C799.462,1589.072 805.483,1577.16 815.97,1568.48C809.249,1564.423 801.905,1560.564 794.43,1557.085C793.395,1556.603 792.357,1556.128 791.317,1555.662C775.484,1572.563 773.273,1601.126 773.093,1603.894ZM795.966,1633.18C798.907,1630.985 801.816,1628.72 804.685,1626.384C819.357,1614.439 832.157,1602.083 842.612,1590.246C837.833,1583.817 829.616,1577.121 819.723,1570.809C809.226,1578.987 803.354,1590.602 800.057,1601.713C796.08,1615.116 795.847,1627.827 795.966,1633.18ZM845.401,1587.036C851.648,1579.723 856.967,1572.645 861.245,1566.027C833.56,1535.462 769.837,1518.698 736.647,1520.006C737.574,1525.671 738.971,1531.371 740.615,1536.893C746.728,1536.942 754.718,1538.418 763.603,1540.955C764.163,1540.847 764.764,1540.967 765.255,1541.337C765.319,1541.385 765.379,1541.436 765.436,1541.49C773.494,1543.89 782.216,1547.12 790.898,1550.92C791.468,1550.892 792.047,1551.097 792.48,1551.534C792.525,1551.58 792.568,1551.627 792.608,1551.675C793.804,1552.209 794.997,1552.753 796.188,1553.307C804.404,1557.131 812.45,1561.42 819.731,1565.934C820.467,1565.839 821.23,1566.141 821.692,1566.785C821.82,1566.962 821.915,1567.153 821.98,1567.351C831.962,1573.744 840.316,1580.528 845.401,1587.036ZM626.08,1771.98C626.443,1771.358 626.801,1770.711 627.153,1770.036C635.644,1753.773 624.163,1742.134 616.704,1741.062C615.449,1740.882 613.405,1741.545 611.344,1742.694C608.3,1744.39 605.201,1747.263 604.653,1751.085C604.291,1753.617 605.108,1756.506 607.635,1759.709C612.025,1765.272 618.293,1769.396 626.08,1771.98Z" style="fill:rgb(201,123,93);stroke:rgb(201,123,93);stroke-width:4.17px;"/>
    </g>
    <g>
        <g transform="matrix(0.674668,0,0,0.674668,-476.314763,-856.514758)">
            <path d="M1247,1582C1252,1594.99 1344.491,1775.712 1353,1792C1361.509,1808.288 1373.609,1806.627 1386,1800C1398.391,1793.373 1498.649,1742.593 1513,1736C1527.351,1729.407 1529.249,1717.083 1523,1704C1516.751,1690.917 1426.117,1514.403 1420,1501C1413.883,1487.597 1403.248,1484.601 1388,1479C1372.752,1473.399 1351.843,1465.104 1342,1462C1332.157,1458.896 1323.624,1460.951 1316,1465C1308.376,1469.049 1287.1,1478.624 1280,1483C1272.9,1487.376 1268.588,1491.036 1264,1504C1259.412,1516.964 1248.974,1548.599 1246,1562C1243.026,1575.401 1242,1569.01 1247,1582Z" style="fill:rgb(250,243,230);stroke:rgb(201,123,93);stroke-width:9.26px;stroke-linecap:round;stroke-miterlimit:1.5;"/>
            <g transform="matrix(1,0,0,1,-2,-6)">
                <circle cx="1318.5" cy="1515.5" r="17.5" style="fill:rgb(250,243,230);stroke:rgb(201,123,93);stroke-width:9.26px;stroke-linecap:round;stroke-miterlimit:1.5;"/>
            </g>
        </g>
        <g transform="matrix(1.387317,0,0,1.377746,-892.185591,-1952.101288)">
            <path d="M938.721,1536C942.86,1534.646 942.615,1532.305 941,1526" style="fill:none;stroke:rgb(201,123,93);stroke-width:4.52px;stroke-linecap:round;stroke-miterlimit:1.5;"/>
        </g>
        <g transform="matrix(0.977778,0,0,1.025974,-508.037445,-1411.557521)">
            <path d="M938,1536C929.346,1537.726 883.322,1509.836 861.295,1460.949" style="fill:none;stroke:rgb(201,123,93);stroke-width:6.24px;stroke-linecap:round;stroke-miterlimit:1.5;"/>
        </g>
        <g transform="matrix(1,0,0,1,-526.88189,-1373.661417)">
            <path d="M930,1509C920.52,1501.852 907.233,1481.712 862,1463" style="fill:none;stroke:rgb(201,123,93);stroke-width:6.25px;stroke-linecap:round;stroke-miterlimit:1.5;"/>
        </g>
    </g>
</svg>
